<svg width="250" height="78" viewBox="0 0 250 78" fill="none" xmlns="http://www.w3.org/2000/svg">
<path d="M38.0392 2.70523C34.2723 2.92427 30.5813 3.76389 27.1527 5.17908C25.9669 5.67073 24.4521 6.40006 24.4521 6.47628C24.4521 6.51061 24.6002 6.71525 24.7883 6.92606C25.1971 7.40877 25.6239 8.26568 25.7948 8.95164C25.959 9.61289 25.959 10.6291 25.7948 11.2993C25.6392 11.9104 25.1068 13.1554 24.714 13.7994C24.0759 14.8493 22.872 15.6973 21.6284 15.9705C20.3275 16.2486 19.7865 16.123 17.0287 14.8246L14.8345 13.7911L14.4336 14.2499C5.46347 24.4199 2.86849 38.9302 7.73013 51.6937C10.4727 58.8898 15.4327 65.0181 21.8484 69.1126C27.8234 72.9345 35.0022 74.792 42.0493 74.3251C42.9248 74.2742 43.6945 74.1966 43.759 74.1561C43.8414 74.1135 43.7763 74.0448 43.5151 73.9267C40.7074 72.6207 33.357 69.147 32.9223 68.917C31.3018 68.0525 30.2635 66.1634 30.3692 64.2813C30.4183 63.4078 30.574 62.8998 31.1802 61.6109C31.5232 60.8652 31.6946 60.6105 32.2177 60.0777C33.5192 58.738 35.2881 58.2553 36.9419 58.7971C37.2044 58.8905 42.1311 61.1797 47.8928 63.8913C53.6471 66.5954 58.4025 68.8152 58.467 68.8152C58.6564 68.8152 61.6676 66.6036 61.8152 66.3585C61.8391 66.3235 55.5874 63.3406 47.9247 59.7384C37.2682 54.7203 33.8888 53.1027 33.5112 52.804C32.366 51.9155 31.6528 50.4062 31.6528 48.8715C31.6528 47.974 31.8184 47.3637 32.3986 46.1085C32.8247 45.1856 32.9549 44.9899 33.5112 44.4062C34.1999 43.7017 34.9524 43.2513 35.8278 43.0418C36.4247 42.8976 37.3918 42.9135 37.9967 43.0755C38.2666 43.1435 45.3877 46.4483 53.8267 50.424C62.2651 54.3901 69.2058 57.6194 69.2623 57.5939C69.4603 57.5177 70.9833 54.6702 70.8757 54.5597C70.8431 54.526 63.0681 50.847 53.5895 46.3975C44.1115 41.939 36.1395 38.1672 35.8697 38.0237C34.7403 37.4133 33.7905 36.0834 33.488 34.6922C33.2255 33.4631 33.3976 32.5305 34.2006 30.7932C34.5589 30.0228 34.7151 29.7832 35.2475 29.2339C35.7221 28.7429 36.0332 28.4972 36.4912 28.2761C37.6618 27.6911 38.9147 27.5805 40.0015 27.9623C40.2475 28.0475 48.0398 31.6921 57.3051 36.0482C66.579 40.4126 74.1745 43.964 74.1904 43.9558C74.2629 43.8803 74.4589 41.8792 74.4841 41.0573L74.5017 40.1331L60.0548 33.336C49.9951 28.607 45.444 26.4276 45.0585 26.1488C44.1432 25.4951 43.4798 24.4954 43.1926 23.3343C42.8656 22.0036 43.0125 21.0285 43.8068 19.3592C44.4131 18.08 44.7728 17.6206 45.6169 17.0362C46.6971 16.2823 48.0882 16.0111 49.2913 16.2981C49.6669 16.3922 53.622 18.2153 61.3059 21.8257C67.6 24.7913 72.7653 27.1993 72.7899 27.1739C72.8391 27.1231 72.2733 25.5034 71.8393 24.4446C67.5918 14.1118 58.7681 6.35613 48.2345 3.67888C45.0865 2.88373 41.255 2.51777 38.0392 2.70523Z" fill="#149848"/>
<path d="M191.424 15.7578C186.619 16.4342 183.632 19.4019 182.74 24.352C182.526 25.5564 182.446 27.9199 182.576 29.1998C182.993 33.3026 184.703 36.2599 187.56 37.8207C189.026 38.6172 190.368 38.9989 192.332 39.1685C194.313 39.3381 196.195 39.1171 197.972 38.5067C200.886 37.5062 202.955 35.2862 203.93 32.1166C204.798 29.3013 204.789 25.3778 203.905 22.5804C202.898 19.4019 200.721 17.1731 197.71 16.2331C196.384 15.8176 195.753 15.7324 193.798 15.7063C192.781 15.6967 191.718 15.7152 191.424 15.7578ZM195.123 20.4958C196.227 20.9366 197.013 21.7166 197.602 22.9443C198.641 25.1135 198.733 28.8592 197.815 31.3188C196.825 33.9713 194.583 35.1832 192.135 34.4039C190.67 33.9376 189.581 32.5973 189.017 30.5813C188.738 29.5726 188.641 28.7424 188.641 27.387C188.641 23.5554 189.934 21.0719 192.299 20.3674C192.921 20.1909 194.533 20.2575 195.123 20.4958Z" fill="#149848"/>
<path d="M83.5464 27.4118V38.8123H89.3671L89.2769 21.648L89.6284 22.7501C89.8165 23.3509 91.0115 27.2167 92.2638 31.3353L94.5552 38.8123L97.289 38.7944L100.022 38.7697L105.564 21.648L105.498 38.8123H111.292V16.0113L106.815 16.0271L102.347 16.0532L97.501 31.1053L92.8522 16.0113H83.5451V27.4118H83.5464Z" fill="#149848"/>
<path d="M121.647 16.1122C121.581 16.2983 113.437 38.5053 113.38 38.6584C113.323 38.8026 113.495 38.8123 116.352 38.8123H119.379L119.511 38.447C119.584 38.2527 119.97 37.1759 120.37 36.0567L121.09 34.0229L125.174 33.9974L129.26 33.9816L130.077 36.3966L130.888 38.8137H134.152C135.995 38.8137 137.404 38.7786 137.387 38.7367C137.378 38.6934 135.462 33.5662 133.146 27.3355L128.93 16.0133H125.305C122.482 16.012 121.672 16.0374 121.647 16.1122ZM126.549 25.1651C127.211 27.4283 127.769 29.3439 127.793 29.4201C127.834 29.5643 127.671 29.5734 125.166 29.5734C123.054 29.5734 122.497 29.5465 122.531 29.4627C122.547 29.4119 123.169 27.4626 123.905 25.1396C124.634 22.8263 125.264 20.9537 125.297 20.9867C125.322 21.0286 125.887 22.9033 126.549 25.1651Z" fill="#149848"/>
<path d="M139.612 38.8123H145.506V29.0639H152.382V38.8123H158.275V16.0113H152.382V24.74H145.506V16.0113H139.612V38.8123Z" fill="#149848"/>
<path d="M162.285 38.8123H168.178L168.196 33.676L168.219 28.5385L171.616 33.676L175.005 38.8123H178.801C182.461 38.8123 182.592 38.8026 182.485 38.6584C182.429 38.5746 180.464 35.8439 178.123 32.5905C175.782 29.3351 173.874 26.6488 173.891 26.6234C173.899 26.5891 175.709 24.2249 177.902 21.3588C180.096 18.5031 181.904 16.1224 181.912 16.0874C181.928 16.0455 180.405 16.0188 178.358 16.0277L174.784 16.0539L168.219 25.2762L168.196 20.6475L168.178 16.012H162.285V38.8123Z" fill="#149848"/>
<path d="M205.419 20.5885H210.82V38.813H216.715V20.5885H222.116V16.012H205.419V20.5885Z" fill="#149848"/>
<path d="M228.655 16.2406C228.582 16.4342 220.553 38.337 220.421 38.7016C220.388 38.7854 221.019 38.8123 223.401 38.8123H226.43L227.279 36.4137L228.139 34.0228L232.223 34.007L236.315 33.9816L237.095 36.3203C237.52 37.6002 237.896 38.6927 237.92 38.736C237.944 38.7861 239.239 38.8039 241.202 38.795L244.443 38.7704L235.989 16.0552L232.362 16.029L228.747 16.0133L228.655 16.2406ZM233.559 25.0462C234.229 27.3252 234.802 29.2747 234.835 29.3783L234.891 29.5733H232.223C230.121 29.5733 229.556 29.5464 229.58 29.4627C229.842 28.5892 232.314 20.8679 232.322 20.8775C232.339 20.8851 232.887 22.7583 233.559 25.0462Z" fill="#149848"/>
<path d="M128.072 45.6346C126.246 46.0233 124.854 47.0828 124.102 48.6593C123.595 49.7353 123.464 50.4227 123.513 51.8639C123.579 53.7701 123.979 54.8379 125.084 55.9818C126.156 57.1018 127.301 57.5851 129.095 57.6861C130.036 57.7362 131.182 57.6256 131.73 57.4224L132.042 57.3119L132.018 56.4742C132.009 56.0162 131.985 55.635 131.976 55.6261C131.967 55.6179 131.698 55.7023 131.378 55.8122C128.144 56.9321 125.288 54.965 125.288 51.6093C125.288 50.0163 125.895 48.6938 126.999 47.8959C127.622 47.4393 128.153 47.2352 128.987 47.1082C129.798 46.999 130.731 47.1344 131.443 47.4907C131.934 47.7359 131.999 47.6932 131.999 47.1514C131.999 46.9578 132.024 46.6262 132.05 46.4058C132.106 46.0171 132.106 46.0172 131.795 45.8812C130.961 45.5235 129.168 45.4046 128.072 45.6346Z" fill="#595A5C"/>
<path d="M162.285 45.641C160.091 46.1251 158.495 47.6522 157.929 49.8042C157.693 50.7277 157.693 52.474 157.929 53.3975C158.47 55.4747 159.804 56.8644 161.85 57.4749C162.407 57.6431 162.669 57.6692 163.839 57.661C164.895 57.6527 165.313 57.6183 165.762 57.492L166.336 57.3314L166.303 56.4826C166.287 56.0171 166.262 55.6188 166.246 55.6017C166.23 55.5852 166.041 55.6449 165.828 55.7465C164.985 56.1097 163.651 56.2375 162.776 56.0177C161.695 55.7548 160.598 54.8991 160.099 53.9241C159.69 53.1358 159.551 52.5255 159.551 51.5662C159.567 49.1012 161.065 47.3543 163.389 47.0837C164.175 46.991 164.985 47.1689 166.107 47.6777C166.173 47.7106 166.212 47.5417 166.246 47.1434C166.278 46.8296 166.311 46.4397 166.336 46.2879C166.361 46.0414 166.336 45.9981 166.082 45.889C165.223 45.5154 163.373 45.3966 162.285 45.641Z" fill="#595A5C"/>
<path d="M83.4659 51.6101V57.5427H84.3254H85.1835L85.2001 52.5769L85.2254 47.6097L87.0592 52.5769L88.8926 57.5427H89.7186H90.545L92.3869 52.5425L94.2287 47.5499L94.2541 52.5425L94.27 57.5427H95.1294H95.9882V51.6101V45.6767L94.589 45.694L93.1898 45.7186L91.4963 50.4407C90.5717 53.0328 89.7851 55.1779 89.7599 55.2033C89.7359 55.2294 89.3844 54.3306 88.9663 53.1942C88.5575 52.0674 87.7718 49.9148 87.2234 48.4062L86.225 45.676H84.8499H83.4672V51.6101H83.4659Z" fill="#595A5C"/>
<path d="M98.8536 51.6095V57.5421H102.086H105.317V56.7374V55.9312H102.944H100.571V54.0677V52.2027H102.74H104.909V51.3972V50.5904H102.74H100.571V48.9398V47.2862H102.944H105.317V46.4822V45.676H102.086H98.8536V51.6095Z" fill="#595A5C"/>
<path d="M107.692 51.6015V57.5416H109.518C113.086 57.5416 114.347 57.1955 115.639 55.8559C116.606 54.8554 117.04 53.7789 117.154 52.067C117.365 49.0327 115.778 46.7098 112.964 45.9215C112.397 45.7615 112.038 45.7354 110.009 45.7024L107.692 45.6592V51.6015ZM112.398 47.4135C114.339 47.9395 115.5 49.7275 115.353 51.9482C115.206 54.151 114.249 55.3979 112.398 55.8044C112.047 55.8806 111.367 55.9308 110.622 55.9308H109.411V51.609V47.2858H110.663C111.522 47.2865 112.063 47.3291 112.398 47.4135Z" fill="#595A5C"/>
<path d="M119.559 51.6095V57.5421H120.378H121.196V51.6095V45.676H120.378H119.559V51.6095Z" fill="#595A5C"/>
<path d="M137.541 45.7359C137.436 45.913 132.737 57.3725 132.737 57.4487C132.737 57.5091 133.04 57.5421 133.622 57.5421H134.498L135.063 56.0603L135.626 54.5765H138.377H141.136L141.7 56.0603L142.273 57.5421H143.197C143.697 57.5421 144.115 57.5174 144.115 57.4755C144.115 57.4412 143.034 54.7715 141.724 51.5511L139.327 45.676H138.451C137.968 45.676 137.559 45.7022 137.541 45.7359ZM139.424 50.1517C139.973 51.5847 140.447 52.8214 140.48 52.8983C140.529 53.0418 140.39 53.0513 138.385 53.0513C136.716 53.0513 136.248 53.0253 136.272 52.9395C136.339 52.6868 138.353 47.5417 138.385 47.5417C138.41 47.541 138.877 48.7186 139.424 50.1517Z" fill="#595A5C"/>
<path d="M145.67 51.6095V57.5421H148.903H152.137V56.7374V55.9312H149.761H147.389V50.8033V45.676H146.53H145.67V51.6095Z" fill="#595A5C"/>
<path d="M168.341 51.6095V57.5421H171.534H174.725V56.7374V55.9312H172.352H169.98V54.0677V52.2027H172.149H174.318V51.3972V50.5904H172.149H169.98V48.9398V47.2862H172.352H174.725V46.4822V45.676H171.534H168.341V51.6095Z" fill="#595A5C"/>
<path d="M177.263 51.6095V57.5421H178.123H178.981L178.998 52.8213L179.023 48.1088L181.519 52.8213L184.015 57.5338L185.105 57.5421H186.184V51.6095V45.676H185.326H184.465L184.45 50.3131L184.425 54.9576L181.97 50.3131L179.516 45.676H178.394H177.264V51.6095H177.263Z" fill="#595A5C"/>
<path d="M187.74 46.4822V47.2862H189.499H191.259V52.4156V57.5421H192.078H192.896V52.4156V47.2862H194.655H196.415V46.4822V45.676H192.078H187.74L187.74 46.4822Z" fill="#595A5C"/>
<path d="M197.889 51.6015V57.5416H198.749H199.608V54.9146V52.2882H200.329C201.875 52.2882 201.965 52.3815 203.2 55.3224L204.141 57.5416H205.109C205.64 57.5416 206.075 57.5169 206.075 57.4922C206.075 57.3555 203.74 52.3725 203.561 52.1349C203.446 51.9811 203.266 51.8129 203.16 51.7614C202.979 51.677 203.005 51.6516 203.618 51.3385C204.33 50.9814 204.813 50.4739 205.026 49.8545C205.181 49.389 205.157 48.1847 204.984 47.6526C204.797 47.0998 204.33 46.5422 203.789 46.2442C203.069 45.8371 202.472 45.7443 200.082 45.7024L197.889 45.6592L197.889 51.6015ZM202.145 47.4217C203.242 47.7603 203.683 48.9813 203.045 49.9055C202.676 50.4569 201.711 50.7623 200.369 50.7623H199.608V49.025V47.2865H200.654C201.384 47.2865 201.842 47.329 202.145 47.4217Z" fill="#595A5C"/>
<path d="M208.039 51.6095V57.5421H211.23H214.423V56.7374V55.9312H212.05H209.676V54.0677V52.2027H211.845H214.014V51.3972V50.5904H211.845H209.676V48.9398V47.2862H212.05H214.423V46.4822V45.676H211.23H208.039V51.6095Z" fill="#595A5C"/>
<path d="M130.797 63.3226C130.603 63.3658 130.446 63.4326 130.446 63.4669C130.446 63.5019 130.519 63.7546 130.61 64.0258C130.7 64.2971 130.774 64.5524 130.774 64.6032C130.774 64.6533 130.315 64.6617 129.545 64.6184L128.319 64.5599V65.5859V66.6103H128.808H129.3V66.0596V65.5089H131.345H133.392V66.0596V66.6103H133.884H134.374V65.5859V64.5599L133.195 64.6184L132.018 64.6877L131.788 63.9509C131.535 63.1365 131.542 63.1447 130.797 63.3226Z" fill="#595A5C"/>
<path d="M85.5606 63.4927C85.5374 63.6026 85.4796 63.9165 85.4217 64.196C85.1691 65.5857 84.5217 67.1705 83.8431 68.0948L83.4734 68.6022L83.6775 68.7635C83.7939 68.8479 83.9733 69.0505 84.079 69.2126L84.2686 69.5098L84.4893 69.0773C84.6036 68.8397 84.7757 68.519 84.8654 68.3652L85.0297 68.0939L85.005 71.1619L84.9719 74.2382H85.5282H86.0845V69.9919V65.7456L86.3389 65.1428C86.4779 64.805 86.6828 64.415 86.7885 64.2625C87.0351 63.9233 87.043 63.7283 86.805 63.7283C86.6987 63.7283 86.3963 63.6273 86.1251 63.5153C85.8565 63.3966 85.6264 63.304 85.6165 63.304C85.6012 63.306 85.5773 63.3911 85.5606 63.4927Z" fill="#595A5C"/>
<path d="M105.442 63.6872C104.402 63.9324 101.628 64.1693 99.7042 64.1878L97.8136 64.1969L97.9272 64.4681C97.985 64.6198 98.0337 64.8243 98.0337 64.917C98.0337 65.0777 98.0829 65.086 98.9171 65.0949H99.7931L99.3511 65.3065C99.1058 65.4163 98.8844 65.5282 98.8678 65.5522C98.8532 65.5694 98.9662 65.7652 99.1297 65.9856C99.2946 66.2053 99.4247 66.4084 99.4247 66.4345C99.4247 66.4682 99.0399 66.4765 98.5653 66.4593L97.7059 66.4256V67.4933V68.5625H98.1554H98.6065V68.901V69.2312L99.6867 69.1798L100.767 69.1296L100.57 69.4182C100.022 70.214 98.868 71.1731 97.9188 71.605L97.5264 71.7829L97.8947 72.173L98.2638 72.5547L98.5409 72.4105C98.9757 72.1812 99.7604 71.6051 100.13 71.2577L100.474 70.9343L100.728 71.3497C100.875 71.579 101.169 71.9428 101.391 72.1557L101.792 72.5451L101.367 72.6729C100.81 72.8336 99.4834 73.0546 99.0174 73.0546C98.8127 73.0546 98.5666 73.0793 98.4689 73.1047L98.2969 73.1555L98.4936 73.4591C98.6079 73.6205 98.7157 73.8505 98.7383 73.9597C98.7961 74.1794 98.6969 74.1889 100.27 73.8923C100.76 73.7982 101.481 73.6032 101.865 73.4687C102.258 73.3245 102.643 73.1884 102.716 73.1637C102.79 73.1369 103.141 73.2393 103.503 73.376C104.205 73.6637 105.426 73.9342 106.368 74.0282C106.915 74.0873 106.956 74.0791 106.956 73.9267C106.956 73.834 107.047 73.571 107.161 73.3409C107.277 73.113 107.366 72.9262 107.366 72.9173C107.366 72.9097 106.843 72.8844 106.205 72.859C105.239 72.8081 103.896 72.6199 103.799 72.5279C103.79 72.5114 104.01 72.2986 104.306 72.061C104.593 71.8172 105.05 71.3242 105.319 70.9678C106.131 69.9083 106.328 70.019 103.593 70.0698L101.22 70.1124L101.531 69.6282L101.842 69.1469L103.873 69.1798L105.894 69.2059V68.739V68.2638L104.118 68.2899L102.332 68.3161L102.602 68.0365C102.742 67.8751 102.865 67.7049 102.865 67.6541C102.865 67.6122 102.71 67.5449 102.52 67.5188C102.324 67.4852 102.056 67.4426 101.916 67.4097C101.669 67.3582 101.654 67.3753 101.473 67.8326L101.294 68.3064H100.253C99.6887 68.3064 99.0839 68.2817 98.9191 68.2562L98.6085 68.1966V67.7475V67.2888H102.292H105.975V67.8834V68.476H106.467H106.956V67.4516V66.4256L105.933 66.4846C105.285 66.5183 104.91 66.5101 104.91 66.4593C104.91 66.3495 105.606 65.6971 105.851 65.579C106.187 65.4252 106.089 65.2899 105.55 65.145C105.262 65.0695 104.959 64.9844 104.871 64.9589C104.739 64.9253 104.675 64.9933 104.518 65.3236C104.421 65.5433 104.206 65.8996 104.053 66.1193L103.764 66.5272H101.654L99.5497 66.5177L99.9599 66.2986C100.187 66.1784 100.375 66.0693 100.393 66.0603C100.409 66.0432 100.302 65.8227 100.163 65.5686L99.9093 65.1024L100.426 65.0523C101.398 64.9761 105.769 64.7386 106.327 64.7476C106.63 64.7476 106.874 64.7213 106.874 64.6877C106.874 64.5428 106.162 63.5679 106.057 63.5679C105.99 63.5775 105.711 63.6282 105.442 63.6872ZM103.838 71.1539C103.69 71.3153 103.379 71.5954 103.166 71.7554C102.839 72.0019 102.74 72.0445 102.593 71.9758C102.315 71.8406 101.57 71.2047 101.471 71.0179C101.382 70.849 101.406 70.8491 102.757 70.8491H104.124L103.838 71.1539Z" fill="#595A5C"/>
<path d="M124.962 68.9842V74.0702H125.452H125.943V69.4923V64.9164H126.509H127.075L126.704 66.3577L126.345 67.7996L126.541 68.0702C127.057 68.7733 127.311 69.6557 127.163 70.2064C127.075 70.5525 126.894 70.6802 126.484 70.6802C126.321 70.6802 126.189 70.6967 126.189 70.7139C126.189 70.731 126.246 70.8827 126.313 71.0448C126.378 71.2137 126.436 71.4677 126.436 71.6112C126.436 71.9003 126.518 71.9251 127.049 71.7727C127.491 71.6456 127.901 71.3153 128.04 70.9672C128.326 70.264 128.105 69.0439 127.541 68.1615L127.247 67.7138L127.787 65.8915C128.081 64.8911 128.32 64.0259 128.32 63.9833C128.32 63.9332 127.705 63.9001 126.641 63.9001H124.964V68.9842H124.962Z" fill="#595A5C"/>
<path d="M111.661 68.9004V73.7737H116.22H120.788V73.1886V72.6124L120.566 72.6723C120.436 72.7059 118.617 72.7478 116.514 72.7732L112.685 72.8149V68.9004V64.9934L116.695 65.018L120.705 65.0428V64.5361V64.0266H116.178H111.66V68.9004H111.661Z" fill="#595A5C"/>
<path d="M101.963 65.1363C101.758 65.2043 101.546 65.273 101.489 65.2978C101.415 65.3232 101.464 65.4419 101.636 65.6864C101.767 65.882 101.882 66.0853 101.882 66.1361C101.89 66.4149 102.011 66.4582 102.504 66.3058C102.766 66.2289 103.002 66.1526 103.019 66.1361C103.076 66.0853 102.496 65.001 102.414 65.0086C102.373 65.0175 102.167 65.0683 101.963 65.1363Z" fill="#595A5C"/>
<path d="M87.5575 65.6794V66.2301H90.463H93.3685V65.6794V65.1287H90.463H87.5575V65.6794Z" fill="#595A5C"/>
<path d="M114.691 65.476C114.528 66.2554 114.043 67.2215 113.594 67.6706L113.34 67.9165L113.848 68.0614C114.134 68.1451 114.363 68.2049 114.371 68.196C114.371 68.1884 114.502 67.9591 114.659 67.6885L114.937 67.2044H115.648H116.368V67.6637C116.368 67.9082 116.343 68.2392 116.319 68.3916L116.262 68.6628L114.724 68.6382L113.177 68.6032V69.1126V69.6214L114.569 69.5959C115.338 69.5698 115.96 69.5864 115.96 69.6283C115.96 69.7903 115.518 70.341 115.183 70.5868C114.805 70.8663 113.513 71.5275 113.35 71.5275C113.185 71.5275 113.259 71.6621 113.661 72.0693L114.053 72.4771L114.495 72.2389C115.789 71.5619 116.541 70.8664 116.877 70.019L117.065 69.5624L118.717 69.5959L120.38 69.6214V69.1031V68.5872L118.816 68.6285L117.244 68.6717L117.294 68.4679C117.318 68.3587 117.366 68.0264 117.401 67.7311L117.457 67.205H118.71H119.971V66.7395V66.2726H117.719C116.483 66.2726 115.468 66.2396 115.468 66.2046C115.468 66.1709 115.558 66.0097 115.674 65.849C115.788 65.687 115.877 65.5345 115.877 65.5002C115.877 65.4754 115.739 65.4246 115.575 65.3992C115.403 65.3642 115.15 65.3236 115.003 65.2893C114.763 65.2385 114.732 65.2563 114.691 65.476Z" fill="#595A5C"/>
<path d="M128.973 67.246V67.7548H131.183H133.392V67.246V66.7393H131.183H128.973V67.246Z" fill="#595A5C"/>
<path d="M128.4 69.2056V69.7219L129.055 69.68L129.708 69.6361V70.0193C129.708 70.5199 129.521 71.1482 129.234 71.622C128.89 72.1727 128.399 72.4843 127.179 72.9347C127.089 72.9595 127.122 73.035 127.302 73.206C127.434 73.3344 127.622 73.5362 127.72 73.6722L127.893 73.9015L128.319 73.7314C129.579 73.215 130.307 72.3498 130.577 71.028C130.633 70.7238 130.691 70.2912 130.691 70.0619V69.6636H131.059H131.43V71.5286V73.3927L131.64 73.5294C131.888 73.6976 132.901 73.7835 133.598 73.6895C134.187 73.6139 134.547 73.3083 134.784 72.6635C135.012 72.0112 134.996 71.9185 134.62 71.74C134.44 71.6548 134.251 71.5367 134.202 71.4681C134.047 71.282 133.998 71.3403 133.86 71.8409C133.662 72.5708 133.58 72.6553 132.998 72.6972C132.516 72.7308 132.491 72.7219 132.41 72.5111C132.369 72.3841 132.328 71.6892 132.328 70.9599V69.6465L133.269 69.6725L134.209 69.7062V69.1974V68.6899H131.304H128.399L128.4 69.2056Z" fill="#595A5C"/>
<path d="M117.194 70.2908L116.95 70.663L117.679 71.0955C118.079 71.3406 118.669 71.7396 118.98 71.9937L119.552 72.4524L119.887 71.9696C120.191 71.5191 120.207 71.4773 120.075 71.3749C119.807 71.1635 118.373 70.3498 117.907 70.1383L117.441 69.9255L117.194 70.2908Z" fill="#595A5C"/>
<path d="M86.8199 72.291V72.8843H90.3801H93.9402V72.291V71.6978H90.3801H86.8199V72.291Z" fill="#595A5C"/>
</svg>
